<svg width="100%" height="100%" viewBox="0 0 1440 320" xmlns="http://www.w3.org/2000/svg">
  <path fill="#0099ff" fill-opacity="1" d="M0,160L30,165.3C60,171,120,181,180,186.7C240,192,300,192,360,197.3C420,203,480,213,540,224C600,235,660,245,720,250.7C780,256,840,256,900,245.3C960,235,1020,213,1080,218.7C1140,224,1200,256,1260,240C1320,224,1380,160,1410,128L1440,96L1440,0L1410,0C1380,0,1320,0,1260,0C1200,0,1140,0,1080,0C1020,0,960,0,900,0C840,0,780,0,720,0C660,0,600,0,540,0C480,0,420,0,360,0C300,0,240,0,180,0C120,0,60,0,30,0L0,0Z"></path>
</svg>
